<svg id="Capa_1" enable-background="new 0 0 512 512" height="512" viewBox="0 0 512 512" width="512" xmlns="http://www.w3.org/2000/svg"><g><g><path d="m362.5 127.5c-1.89 2.483-1.373 7.004-3.451 9.273-17.987 19.643-42.77 31.275-70.345 34.813-12.746 1.635-24.506-7.318-26.321-20.04-4.381-30.701 1.873-60.734 20.127-84.71 15.147-19.895 36.51-32.931 60.918-39.046 5.007-1.254 8.336.381 13.572-.291 12.746-1.634 24.504 7.318 26.32 20.039 4.383 30.701-2.566 55.986-20.82 79.962z" fill="#6fd7a3"/><path d="m365 129.64c-18.25 23.98-45.54 38-76.3 41.95-5.25.67-10.33-.45-14.62-2.9 24.41-6.11 45.78-19.15 60.92-39.05 18.26-23.97 24.51-54 20.13-84.7-1.07-7.48-5.58-13.65-11.7-17.14 5-1.26 10.14-2.23 15.38-2.9 12.74-1.63 24.5 7.32 26.32 20.04 4.38 30.7-1.87 60.73-20.13 84.7z" fill="#3ec3a4"/><path d="m351.333 137c-10.196-1.667-20.939-3.883-30.75-2.777-13.38 1.508-26.253 5.466-38.213 11.52-16.883 8.546-35.858 8.546-52.74 0-20.73-10.493-44.201-14.688-68.304-10.747-68.444 11.19-115.985 83.626-106.187 161.791 2.086 16.642 6.998 35.352 14.099 54.387 1.24 3.325 15.058 3.824 16.429 7.16 1.37 3.336-9.706 9.508-8.212 12.836 28.628 63.768 79.285 124.353 128.066 116.378 7.751-1.267 15.121-4.212 22.085-8.551 17.611-10.976 39.179-10.976 56.79 0 5.158 3.214 10.539 5.664 16.133 7.232 1.958.549 8.463-.224 10.472.105 65-1 133.535-112.493 143.333-190.658 9.798-78.166-41.001-145.676-103.001-158.676z" fill="#fe646f"/><path d="m456.86 296.79c-9.8 78.16-81.94 201.95-150.38 190.76-2.01-.33-4-.77-5.95-1.32 60.4-15.8 117.68-120.42 126.33-189.44 9.8-78.17-37.74-150.61-106.19-161.8-.95-.16-1.91-.3-2.86-.42 10.68-1.48 21.7-1.4 32.86.42 68.45 11.19 115.99 83.63 106.19 161.8z" fill="#fd4755"/><path d="m442.76 351.17c-2.48 6.65-5.23 13.34-8.22 20h-357.08c-2.99-6.66-5.74-13.35-8.22-20z" fill="#fd4755"/><path d="m501.5 262.74v65.87c0 12.46-10.82 19.89-23.28 19.89l-22.671 2.67h-425.489c-12.46 0-22.56-10.1-22.56-22.56v-65.87c0-12.46 10.1-22.56 22.56-22.56h425.489l22.671 1.82c12.46 0 23.28 8.28 23.28 20.74z" fill="#fbe08b"/><path d="m504.5 262.74v65.87c0 12.46-10.1 22.56-22.56 22.56h-30c12.46 0 22.56-10.1 22.56-22.56v-65.87c0-12.46-10.1-22.56-22.56-22.56h30c12.46 0 22.56 10.1 22.56 22.56z" fill="#f9d176"/></g><path d="m481.94 232.204h-22.041c-12.939-48.235-46.012-85.385-87.85-99.954 17.929-24.389 25.21-55.858 20.502-88.851-2.387-16.714-17.955-28.57-34.699-26.418-33.715 4.324-62.591 20.245-81.309 44.831-10.983 14.425-18.152 31.422-21.241 49.801-3.269-10.131-7.811-20.337-14.118-29.644-17.776-26.235-44.913-39.537-80.655-39.537-4.143 0-7.5 3.358-7.5 7.5s3.357 7.5 7.5 7.5c30.464 0 53.422 11.086 68.237 32.951 11.174 16.49 16.085 36.615 18.193 52.958-4.731-.891-9.408-2.476-13.943-4.771-22.835-11.56-48.048-15.522-72.9-11.458-16.425 2.685-32.013 8.698-46.333 17.873-3.487 2.234-4.504 6.873-2.27 10.361 2.235 3.488 6.872 4.503 10.361 2.269 12.587-8.064 26.268-13.346 40.661-15.699 21.699-3.548 43.727-.077 63.707 10.037 18.91 9.573 40.604 9.573 59.514 0 19.98-10.113 42.008-13.583 63.707-10.037 44.165 7.22 80.573 42.225 94.847 90.288h-376.624c6.218-20.881 16.793-39.744 30.894-54.988 2.813-3.04 2.628-7.786-.413-10.599-3.041-2.812-7.785-2.628-10.599.413-16.621 17.968-28.804 40.404-35.461 65.174h-22.047c-16.576 0-30.06 13.485-30.06 30.06v65.867c0 16.575 13.484 30.06 30.06 30.06h34.018c29.411 75.357 87.008 145.371 142.653 136.278 8.504-1.39 16.861-4.616 24.842-9.588 15.297-9.533 33.56-9.534 48.856.001 7.978 4.972 16.336 8.198 24.841 9.588 3.275.536 6.582.802 9.922.801 22.408-.001 46.11-12 69.15-35.151 2.922-2.936 2.91-7.685-.025-10.606-2.936-2.922-7.685-2.912-10.607.025-15.979 16.056-40.411 34.318-66.02 30.127-6.538-1.068-13.04-3.597-19.327-7.515-19.963-12.441-44.763-12.44-64.724 0-6.288 3.918-12.79 6.446-19.328 7.515-15.41 2.522-40.365-1.707-71.746-36.145-20.185-22.15-38.933-52.808-52.328-85.329h67.019c4.143 0 7.5-3.358 7.5-7.5s-3.357-7.5-7.5-7.5h-117.196c-8.304 0-15.06-6.756-15.06-15.06v-65.867c0-8.304 6.756-15.059 15.06-15.059h50.424v38.323c0 4.142 3.357 7.5 7.5 7.5s7.5-3.358 7.5-7.5v-38.323h25.535v55.947c0 4.142 3.357 7.5 7.5 7.5s7.5-3.358 7.5-7.5v-55.947h28.474v38.323c0 4.142 3.357 7.5 7.5 7.5s7.5-3.358 7.5-7.5v-38.323h25.535v55.947c0 4.142 3.357 7.5 7.5 7.5s7.5-3.358 7.5-7.5v-55.947h28.472v38.323c0 4.142 3.357 7.5 7.5 7.5s7.5-3.358 7.5-7.5v-38.323h25.535v55.947c0 4.142 3.357 7.5 7.5 7.5s7.5-3.358 7.5-7.5v-55.947h28.473v38.323c0 4.142 3.357 7.5 7.5 7.5s7.5-3.358 7.5-7.5v-38.323h25.536v55.947c0 4.142 3.357 7.5 7.5 7.5s7.5-3.358 7.5-7.5v-55.947h28.473v38.323c0 4.142 3.357 7.5 7.5 7.5s7.5-3.358 7.5-7.5v-38.323h22.513c.003 0 .007.001.01.001.005 0 .01-.001.015-.001h27.886c8.304 0 15.06 6.756 15.06 15.059v65.867c0 8.304-6.756 15.06-15.06 15.06h-301.998c-4.143 0-7.5 3.358-7.5 7.5s3.357 7.5 7.5 7.5h251.815c-9.972 24.178-23.094 47.738-37.534 67.254-2.464 3.33-1.762 8.026 1.568 10.49 1.342.993 2.905 1.471 4.455 1.471 2.297 0 4.565-1.052 6.035-3.039 16.29-22.017 30.963-48.895 41.637-76.176h34.02c16.575 0 30.06-13.485 30.06-30.06v-65.867c.001-16.576-13.483-30.061-30.059-30.061zm-171.852-104.406 22.297-29.144c2.517-3.29 1.89-7.997-1.399-10.514-3.291-2.518-7.998-1.889-10.515 1.399l-35.293 46.131c-2.081.913-4.15 1.865-6.194 2.9-3.28 1.66-6.636 2.931-10.03 3.856-2.268-27.085 4.414-51.681 19.525-71.527 16.502-21.676 41.151-35.175 71.282-39.04 8.666-1.108 16.707 5.018 17.941 13.66 4.293 30.074-2.161 57.427-18.665 79.102-.855 1.124-1.741 2.234-2.651 3.324-1.493-.303-2.992-.586-4.502-.833-13.982-2.284-28.075-2.031-41.796.686z"/></g></svg>